<?xml version="1.0" encoding="utf-8"?>
<!-- Generator: Adobe Illustrator 19.2.1, SVG Export Plug-In . SVG Version: 6.00 Build 0)  -->
<svg version="1.1" id="Layer_1" xmlns="http://www.w3.org/2000/svg" xmlns:xlink="http://www.w3.org/1999/xlink" x="0px" y="0px"
	 width="23px" height="13px" viewBox="0 0 23 13" enable-background="new 0 0 23 13" xml:space="preserve">
<g>
	<path fill="#181E23" d="M0,0v13h23V0H0z M21,2.5c0,2.6-0.8,4.7-2.4,6.2c-2.8,2.6-7,2.3-7.2,2.3H11V3c-1.7,0.2-6.9,1.3-8,7.5L2.9,11
		l-1-0.2L2,10.4C3.4,2.3,11.4,2,11.5,2H12v8c1.1,0,4-0.2,5.9-2.1C19.3,6.7,20,4.8,20,2.5V2h1V2.5z"/>
</g>
</svg>
