<?xml version="1.0" encoding="utf-8"?>
<!-- Generator: Adobe Illustrator 19.2.1, SVG Export Plug-In . SVG Version: 6.00 Build 0)  -->
<svg version="1.1" id="Layer_1" xmlns="http://www.w3.org/2000/svg" xmlns:xlink="http://www.w3.org/1999/xlink" x="0px" y="0px"
	 width="23px" height="13px" viewBox="0 0 23 13" enable-background="new 0 0 23 13" xml:space="preserve">
<g>
	<path fill="#181E23" d="M0,0v13h23V0H0z M21,11h-1V6.3c-0.9,2.3-2.6,4.7-5.5,4.7H14V6.3C13.1,8.5,11.4,11,8.5,11H8V6.3
		C7.1,8.5,5.4,11,2.5,11H2v-1h0.5C7,10,8,2.5,8,2.4l1,0.1V10c4-0.5,5-7.5,5-7.5l1,0.1V10c4-0.5,5-7.5,5-7.5l1,0.1V11z"/>
</g>
</svg>
