<?xml version="1.0" encoding="utf-8"?>
<!-- Generator: Adobe Illustrator 19.2.1, SVG Export Plug-In . SVG Version: 6.00 Build 0)  -->
<svg version="1.1" id="Layer_1" xmlns="http://www.w3.org/2000/svg" xmlns:xlink="http://www.w3.org/1999/xlink" x="0px" y="0px"
	 width="23px" height="13px" viewBox="0 0 23 13" enable-background="new 0 0 23 13" xml:space="preserve">
<g>
	<path fill="#181E23" d="M0,0v13h23V0H0z M21,6h-0.5c-2,0-3.2,3.3-3.5,4.6l-1-0.1C16,8.7,15.5,6,14.5,6h-2.8L7.1,9.4L7,8.5
		C6.8,6.4,6.2,4,5.5,4H2V3h3.5c1.6,0,2.2,2.9,2.4,4.6L11.3,5h3.2c1.4,0,2,1.7,2.3,3.2C17.5,6.7,18.7,5,20.5,5H21V6z"/>
</g>
</svg>
