<?xml version="1.0" encoding="utf-8"?>
<!-- Generator: Adobe Illustrator 22.0.1, SVG Export Plug-In . SVG Version: 6.00 Build 0)  -->
<svg version="1.1" id="Layer_1" xmlns="http://www.w3.org/2000/svg" xmlns:xlink="http://www.w3.org/1999/xlink" x="0px" y="0px"
	 viewBox="0 0 21 11" style="enable-background:new 0 0 21 11;" xml:space="preserve">
<title>shaper-4-ot</title>
<g id="Layer_2_1_">
	<g id="redrawn">
		<path d="M19.5,10C19.224,10,19,9.776,19,9.5V5.33C18.1,7.58,16.44,10,13.5,10C13.224,10,13,9.776,13,9.5V5.33
			C12.1,7.58,10.44,10,7.5,10C7.224,10,7,9.776,7,9.5V5.33C6.1,7.58,4.44,10,1.5,10C1.224,10,1,9.776,1,9.5S1.224,9,1.5,9
			C6,9,7,1.51,7,1.44C7.031,1.176,7.264,0.982,7.53,1C7.792,1.021,7.996,1.237,8,1.5V9c4.08-0.53,5-7.46,5-7.53
			c0.016-0.276,0.253-0.486,0.528-0.47c0.001,0,0.001,0,0.002,0c0.262,0.021,0.466,0.237,0.47,0.5V9c4.08-0.53,5-7.46,5-7.53
			c0.016-0.276,0.253-0.486,0.528-0.47c0.001,0,0.001,0,0.002,0c0.262,0.021,0.466,0.237,0.47,0.5v8C20,9.776,19.776,10,19.5,10z"/>
	</g>
</g>
</svg>
