<?xml version="1.0" encoding="utf-8"?>
<!-- Generator: Adobe Illustrator 22.0.1, SVG Export Plug-In . SVG Version: 6.00 Build 0)  -->
<svg version="1.1" id="Layer_1" xmlns="http://www.w3.org/2000/svg" xmlns:xlink="http://www.w3.org/1999/xlink" x="0px" y="0px"
	 viewBox="0 0 21 11" style="enable-background:new 0 0 21 11;" xml:space="preserve">
<title>shaper-6-ot</title>
<g id="Layer_2_1_">
	<g id="redrawn">
		<path d="M19.5,10c-0.099-0.002-0.195-0.03-0.28-0.08C17.703,8.696,16.583,7.05,16,5.19V9.5c0.003,0.223-0.145,0.421-0.36,0.48
			c-0.21,0.06-0.436-0.02-0.56-0.2L12,5.15V8.5c-0.002,0.244-0.179,0.451-0.42,0.49c-0.25,0.07-0.509-0.076-0.579-0.326
			C11.001,8.662,11,8.661,11,8.66C11,8.55,10,6,5.5,6h-4C1.224,6,1,5.776,1,5.5S1.224,5,1.5,5h4c2.014-0.145,4,0.538,5.5,1.89V3.5
			c-0.013-0.231,0.137-0.439,0.36-0.5c0.21-0.06,0.436,0.02,0.56,0.2L15,7.85V1.5c-0.022-0.276,0.184-0.518,0.46-0.54
			S15.978,1.144,16,1.42c0,0.06,1,5.81,3.79,7.66c0.229,0.156,0.292,0.467,0.14,0.7C19.831,9.919,19.671,10.002,19.5,10z"/>
	</g>
</g>
</svg>
